TITLE ""
FILE "Disc6Track50.mp3" MP3
  TRACK 01 AUDIO
    TITLE "Disc6Track50_01"
    INDEX 01 00:00:00
  TRACK 02 AUDIO
    TITLE "Disc6Track50_02"
    INDEX 01 00:01:16
  TRACK 03 AUDIO
    TITLE "Disc6Track50_03"
    INDEX 01 00:02:37
  TRACK 04 AUDIO
    TITLE "Disc6Track50_04"
    INDEX 01 00:03:65
  TRACK 05 AUDIO
    TITLE "Disc6Track50_05"
    INDEX 01 00:07:75
  TRACK 06 AUDIO
    TITLE "Disc6Track50_06"
    INDEX 01 00:08:31
  TRACK 07 AUDIO
    TITLE "Disc6Track50_07"
    INDEX 01 00:09:72
  TRACK 08 AUDIO
    TITLE "Disc6Track50_08"
    INDEX 01 00:10:60
  TRACK 09 AUDIO
    TITLE "Disc6Track50_09"
    INDEX 01 00:12:27
  TRACK 10 AUDIO
    TITLE "Disc6Track50_10"
    INDEX 01 00:12:64
  TRACK 11 AUDIO
    TITLE "Disc6Track50_11"
    INDEX 01 00:14:22
  TRACK 12 AUDIO
    TITLE "Disc6Track50_12"
    INDEX 01 00:16:01
  TRACK 13 AUDIO
    TITLE "Disc6Track50_13"
    INDEX 01 00:17:34
  TRACK 14 AUDIO
    TITLE "Disc6Track50_14"
    INDEX 01 00:22:14
  TRACK 15 AUDIO
    TITLE "Disc6Track50_15"
    INDEX 01 00:22:43
  TRACK 16 AUDIO
    TITLE "Disc6Track50_16"
    INDEX 01 00:23:74
  TRACK 17 AUDIO
    TITLE "Disc6Track50_17"
    INDEX 01 00:25:30
  TRACK 18 AUDIO
    TITLE "Disc6Track50_18"
    INDEX 01 00:26:66
  TRACK 19 AUDIO
    TITLE "Disc6Track50_19"
    INDEX 01 00:27:29
  TRACK 20 AUDIO
    TITLE "Disc6Track50_20"
    INDEX 01 00:28:42
  TRACK 21 AUDIO
    TITLE "Disc6Track50_21"
    INDEX 01 00:29:53
  TRACK 22 AUDIO
    TITLE "Disc6Track50_22"
    INDEX 01 00:30:70
  TRACK 23 AUDIO
    TITLE "Disc6Track50_23"
    INDEX 01 00:31:28
  TRACK 24 AUDIO
    TITLE "Disc6Track50_24"
    INDEX 01 00:32:48
  TRACK 25 AUDIO
    TITLE "Disc6Track50_25"
    INDEX 01 00:33:67
  TRACK 26 AUDIO
    TITLE "Disc6Track50_26"
    INDEX 01 00:35:13
  TRACK 27 AUDIO
    TITLE "Disc6Track50_27"
    INDEX 01 00:35:50
  TRACK 28 AUDIO
    TITLE "Disc6Track50_28"
    INDEX 01 00:36:57
  TRACK 29 AUDIO
    TITLE "Disc6Track50_29"
    INDEX 01 00:38:34
  TRACK 30 AUDIO
    TITLE "Disc6Track50_30"
    INDEX 01 00:39:40
  TRACK 31 AUDIO
    TITLE "Disc6Track50_31"
    INDEX 01 00:43:22
  TRACK 32 AUDIO
    TITLE "Disc6Track50_32"
    INDEX 01 00:43:51
  TRACK 33 AUDIO
    TITLE "Disc6Track50_33"
    INDEX 01 00:44:72
  TRACK 34 AUDIO
    TITLE "Disc6Track50_34"
    INDEX 01 00:46:14
  TRACK 35 AUDIO
    TITLE "Disc6Track50_35"
    INDEX 01 00:47:31
  TRACK 36 AUDIO
    TITLE "Disc6Track50_36"
    INDEX 01 00:52:19
  TRACK 37 AUDIO
    TITLE "Disc6Track50_37"
    INDEX 01 00:52:48
  TRACK 38 AUDIO
    TITLE "Disc6Track50_38"
    INDEX 01 00:53:65
  TRACK 39 AUDIO
    TITLE "Disc6Track50_39"
    INDEX 01 00:55:11
  TRACK 40 AUDIO
    TITLE "Disc6Track50_40"
    INDEX 01 00:56:26
  TRACK 41 AUDIO
    TITLE "Disc6Track50_41"
    INDEX 01 00:59:37
